<svg width="60" height="60" viewBox="0 0 60 60" fill="none" xmlns="http://www.w3.org/2000/svg">
<path d="M40 25C42.7614 25 45 22.7614 45 20C45 17.2386 42.7614 15 40 15C37.2386 15 35 17.2386 35 20C35 22.7614 37.2386 25 40 25Z" stroke="#1C274C" stroke-width="3.75"/>
<path d="M5 31.2502L9.37898 27.4187C11.6572 25.4255 15.0907 25.5397 17.2312 27.6802L27.9555 38.4045C29.6735 40.1227 32.378 40.357 34.366 38.9597L35.1115 38.436C37.972 36.4255 41.8423 36.6585 44.4413 38.9975L52.5 46.2502" stroke="#1C274C" stroke-width="3.75" stroke-linecap="round"/>
<path d="M55 30C55 41.785 55 47.6777 51.3387 51.3387C47.6777 55 41.785 55 30 55C18.2149 55 12.3223 55 8.66117 51.3387C5 47.6777 5 41.785 5 30C5 18.2149 5 12.3223 8.66117 8.66117C12.3223 5 18.2149 5 30 5C41.785 5 47.6777 5 51.3387 8.66117C53.7732 11.0955 54.589 14.5164 54.8623 20" stroke="#1C274C" stroke-width="3.75" stroke-linecap="round"/>
</svg>
