<svg width="60" height="60" viewBox="0 0 60 60" fill="none" xmlns="http://www.w3.org/2000/svg">
<path d="M13.6 10.375L50.225 27.875C50.6477 28.0797 51.0041 28.3993 51.2536 28.7973C51.503 29.1952 51.6353 29.6553 51.6353 30.125C51.6353 30.5946 51.503 31.0548 51.2536 31.4527C51.0041 31.8506 50.6477 32.1703 50.225 32.375L13.6 49.875C13.1138 50.1568 12.5469 50.2665 11.9906 50.1866C11.4344 50.1066 10.9213 49.8416 10.5342 49.4342C10.1471 49.0269 9.90852 48.501 9.85696 47.9414C9.80539 47.3818 9.94385 46.8212 10.25 46.35L17.05 31.025C17.1861 30.7004 17.2563 30.352 17.2563 30C17.2563 29.648 17.1861 29.2996 17.05 28.975L10.25 13.65C10.0435 13.184 9.98435 12.666 10.0805 12.1655C10.1767 11.6649 10.4235 11.2057 10.788 10.8494C11.1524 10.4931 11.6171 10.2567 12.1197 10.1719C12.6223 10.0871 13.1388 10.158 13.6 10.375Z" fill="#4285F4"/>
<path d="M17.5 30H27.5M10.25 13.65L17.05 28.975C17.1861 29.2996 17.2563 29.648 17.2563 30C17.2563 30.352 17.1861 30.7004 17.05 31.025L10.25 46.35C10.0435 46.816 9.98435 47.334 10.0805 47.8345C10.1767 48.3351 10.4235 48.7942 10.788 49.1506C11.1524 49.5069 11.6171 49.7433 12.1197 49.8281C12.6223 49.9129 13.1388 49.842 13.6 49.625L50.225 32.125C50.6477 31.9203 51.0041 31.6006 51.2536 31.2027C51.503 30.8048 51.6353 30.3446 51.6353 29.875C51.6353 29.4053 51.503 28.9452 51.2536 28.5473C51.0041 28.1493 50.6477 27.8297 50.225 27.625L13.6 10.375C13.1388 10.158 12.6223 10.0871 12.1197 10.1719C11.6171 10.2567 11.1524 10.4931 10.788 10.8494C10.4235 11.2057 10.1767 11.6649 10.0805 12.1655C9.98435 12.666 10.0435 13.184 10.25 13.65Z" stroke="#1B1B1B" stroke-width="3" stroke-linecap="round" stroke-linejoin="round"/>
</svg>
