<svg width="60" height="60" viewBox="0 0 60 60" fill="none" xmlns="http://www.w3.org/2000/svg">
<path d="M30 30C34.1421 30 37.5 26.6421 37.5 22.5C37.5 18.3579 34.1421 15 30 15C25.8579 15 22.5 18.3579 22.5 22.5C22.5 26.6421 25.8579 30 30 30Z" stroke="#ccc" stroke-width="3.75"/>
<path d="M44.9228 50C44.525 42.7713 42.3118 37.5 29.9998 37.5C17.688 37.5 15.4748 42.7713 15.0769 50" stroke="#ccc" stroke-width="3.75" stroke-linecap="round"/>
<path d="M17.5 8.34455C21.1772 6.21743 25.4465 5 30 5C43.807 5 55 16.1929 55 30C55 43.807 43.807 55 30 55C16.1929 55 5 43.807 5 30C5 25.4465 6.21743 21.1772 8.34455 17.5" stroke="#ccc" stroke-width="3.75" stroke-linecap="round"/>
</svg>
